<?xml version="1.0" encoding="UTF-8"?>
<svg id="Ebene_1" data-name="Ebene 1" xmlns="http://www.w3.org/2000/svg" viewBox="0 0 841.89 635">
  <defs>
    <style>
      .cls-1 {
        fill: #a58e6c;
      }

      .cls-2 {
        fill: #7b003d;
      }
    </style>
  </defs>
  <g>
    <path class="cls-1" d="M136.46,433.85c.71,1.67,1.54,3.45,2.5,5.34.95,1.91,2.05,3.69,3.3,5.36s2.59,3.1,4.01,4.28c1.43,1.19,3.03,1.96,4.82,2.31v.54h-27.29v-.54c1.43-.35,2.38-1.12,2.85-2.31.47-1.18.62-2.61.45-4.28-.18-1.67-.57-3.45-1.16-5.36-.6-1.9-1.25-3.68-1.96-5.34l-5.53-13.55h-56.35l-5.53,13.55c-.71,1.67-1.37,3.45-1.96,5.34-.6,1.91-.98,3.69-1.16,5.36-.18,1.67-.06,3.1.36,4.28.42,1.19,1.34,1.96,2.76,2.31v.54h-16.58v-.54c1.78-.35,3.39-1.12,4.81-2.31,1.43-1.18,2.76-2.61,4.01-4.28s2.32-3.45,3.21-5.36c.89-1.9,1.69-3.68,2.41-5.34l34.77-83.46h12.66l34.6,83.46ZM62.8,418.51h54.75l-27.28-65.8-27.46,65.8Z"/>
    <path class="cls-1" d="M242.39,350.39h16.58v.53c-1.55.36-2.83,1.16-3.83,2.41-1.01,1.25-1.75,2.68-2.23,4.29-.48,1.6-.8,3.36-.98,5.25-.18,1.91-.27,3.69-.27,5.36v44.75c0,5.36-.54,10.41-1.61,15.16-1.07,4.75-2.79,8.86-5.17,12.3-2.38,3.45-5.56,6.18-9.54,8.2-3.98,2.03-8.89,3.04-14.71,3.04-6.42,0-12.13-.93-17.12-2.77-4.99-1.84-9.25-4.46-12.75-7.85-3.51-3.38-6.18-7.46-8.03-12.21-1.84-4.75-2.76-10.04-2.76-15.88v-44.75c0-1.67-.09-3.45-.27-5.36-.18-1.9-.51-3.65-.98-5.25-.48-1.61-1.19-3.04-2.14-4.29-.95-1.25-2.26-2.04-3.92-2.41v-.53h26.21v.53c-1.55.36-2.83,1.16-3.83,2.41-1.01,1.25-1.75,2.68-2.23,4.29-.48,1.6-.8,3.36-.98,5.25-.18,1.91-.27,3.69-.27,5.36v44.75c0,12.96,2.61,22.35,7.85,28.18,5.23,5.83,12.3,8.74,21.22,8.74,4.4,0,8.38-.68,11.95-2.04,3.57-1.37,6.63-3.54,9.18-6.51,2.55-2.97,4.52-6.81,5.89-11.51,1.36-4.69,2.05-10.3,2.05-16.85v-44.75c0-1.67-.09-3.45-.27-5.36-.18-1.9-.51-3.65-.98-5.25-.48-1.61-1.19-3.04-2.14-4.29-.95-1.25-2.26-2.04-3.92-2.41v-.53Z"/>
    <path class="cls-1" d="M304.62,367.87c0,4.99,1.54,9.07,4.64,12.22,3.09,3.15,6.98,5.82,11.68,8.02,4.7,2.2,9.75,4.22,15.16,6.06,5.41,1.85,10.46,3.98,15.16,6.42,4.7,2.44,8.59,5.5,11.68,9.18,3.09,3.69,4.64,8.44,4.64,14.28,0,3.91-.69,7.69-2.05,11.32-1.37,3.62-3.57,6.8-6.6,9.53-3.03,2.75-6.95,4.9-11.77,6.51-4.81,1.6-10.73,2.41-17.74,2.41-4.4,0-8.83-.77-13.29-2.31-4.46-1.54-8.47-3.63-12.04-6.24-3.57-2.62-6.48-5.65-8.74-9.1-2.26-3.45-3.39-7.07-3.39-10.87,0-1.67.65-3.1,1.96-4.29,1.31-1.18,2.79-1.78,4.46-1.78,1.78,0,3.39.51,4.82,1.52,1.43,1.01,2.14,2.53,2.14,4.55,0,4.87.95,9,2.85,12.39,1.9,3.38,4.25,6.13,7.04,8.2,2.79,2.08,5.8,3.6,9.01,4.55,3.21.95,6.18,1.42,8.92,1.42,3.21,0,6.24-.62,9.1-1.87,2.85-1.25,5.29-2.88,7.31-4.9,2.02-2.02,3.62-4.33,4.81-6.96,1.19-2.61,1.78-5.34,1.78-8.2,0-4.28-.89-7.9-2.67-10.87-1.78-2.97-4.16-5.5-7.13-7.58-2.97-2.09-6.36-3.87-10.17-5.36-3.81-1.49-7.67-2.88-11.59-4.19-3.92-1.3-7.79-2.68-11.59-4.11-3.81-1.42-7.19-3.18-10.16-5.25-2.97-2.08-5.35-4.55-7.13-7.4-1.78-2.86-2.68-6.42-2.68-10.7,0-5.23,1.22-9.54,3.66-12.94,2.44-3.38,5.5-6.06,9.18-8.02,3.68-1.96,7.73-3.32,12.13-4.1,4.4-.77,8.56-1.17,12.48-1.17,3.57,0,7.4.54,11.5,1.61,4.1,1.07,7.91,2.64,11.41,4.72,3.5,2.09,6.39,4.58,8.65,7.49,2.26,2.92,3.39,6.22,3.39,9.91,0,1.67-.6,3.09-1.78,4.28-1.19,1.19-2.62,1.78-4.28,1.78-1.55,0-3.09-.5-4.64-1.51-1.55-1.02-2.44-2.53-2.68-4.55-.95-7.49-3.51-12.99-7.67-16.5-4.16-3.51-9.33-5.27-15.52-5.27-3.33,0-6.48.51-9.45,1.52-2.97,1.01-5.56,2.35-7.76,4.02-2.2,1.66-3.92,3.56-5.17,5.71-1.25,2.13-1.87,4.28-1.87,6.41Z"/>
    <path class="cls-1" d="M455.49,450.08c7.49,0,13.73-1.25,18.72-3.74,4.99-2.5,7.96-6.13,8.92-10.88h.53v16.59h-74.01l61.17-99.87h-41.02c-1.67,0-3.45.09-5.35.27-1.9.18-3.69.53-5.35,1.07-1.67.53-3.12,1.28-4.37,2.24s-2.05,2.26-2.41,3.91h-.53v-9.27h73.65l-61.17,99.69h31.21Z"/>
    <path class="cls-1" d="M599.05,435.28v16.41h-69.73v-.54c1.66-.35,2.97-1.16,3.92-2.41.95-1.25,1.66-2.68,2.14-4.28.47-1.6.8-3.36.98-5.27.18-1.9.27-3.68.27-5.34v-65.62c0-1.67-.09-3.45-.27-5.36-.18-1.9-.51-3.65-.98-5.25-.48-1.61-1.19-3.04-2.14-4.29-.95-1.25-2.26-2.04-3.92-2.41v-.53h64.91v9.1h-.71c-.36-1.54-1.13-2.79-2.32-3.74-1.19-.95-2.62-1.7-4.28-2.24-1.67-.53-3.45-.89-5.35-1.07-1.9-.18-3.69-.27-5.35-.27h-28v46.55h12.66c1.66,0,3.45-.09,5.35-.27,1.9-.17,3.66-.5,5.26-.98,1.6-.48,3.03-1.21,4.28-2.22s2.05-2.29,2.41-3.84h.53v16.58h-.53c-.36-1.66-1.16-2.96-2.41-3.91s-2.68-1.67-4.28-2.14c-1.61-.48-3.36-.81-5.26-.99-1.9-.17-3.69-.26-5.35-.26h-12.66v49.21h22.65c7.49,0,13.7-1.27,18.64-3.84,4.93-2.55,7.93-6.15,9.01-10.78h.53Z"/>
    <path class="cls-1" d="M660.93,433.85c0,1.67.09,3.45.27,5.34.18,1.91.5,3.67.98,5.27.47,1.6,1.22,3.03,2.23,4.28,1.01,1.25,2.29,2.05,3.83,2.41v.54h-26.21v-.54c1.66-.35,2.97-1.16,3.92-2.41.95-1.25,1.66-2.68,2.14-4.28.47-1.6.8-3.36.98-5.27.18-1.9.27-3.68.27-5.34v-65.62c0-1.67-.09-3.45-.27-5.36-.18-1.9-.51-3.65-.98-5.25-.48-1.61-1.19-3.04-2.14-4.29-.95-1.25-2.26-2.04-3.92-2.41v-.53h26.21v.53c-1.55.36-2.83,1.16-3.83,2.41-1.01,1.25-1.75,2.68-2.23,4.29-.48,1.6-.8,3.36-.98,5.25-.18,1.91-.27,3.69-.27,5.36v65.62Z"/>
    <path class="cls-1" d="M713,350.39h89.17v16.41h-.71c-.95-4.64-3.92-8.23-8.92-10.79-4.99-2.55-11.24-3.84-18.72-3.84h-10.52v81.68c0,1.67.09,3.45.27,5.34.18,1.91.53,3.67,1.07,5.27.53,1.6,1.28,3.03,2.23,4.28.95,1.25,2.2,2.05,3.74,2.41v.54h-26.22v-.54c1.66-.35,2.97-1.16,3.92-2.41.95-1.25,1.7-2.68,2.23-4.28.53-1.6.89-3.36,1.07-5.27.18-1.9.27-3.68.27-5.34v-81.68h-10.52c-7.49,0-13.73,1.28-18.72,3.84-4.99,2.56-8.02,6.15-9.1,10.79h-.53v-16.41Z"/>
  </g>
  <g>
    <path class="cls-1" d="M295.13,571.24h-21.86v-.49c1.48,0,2.96-.42,4.46-1.26,1.49-.83,2.39-1.87,2.68-3.12v-19.95c0-4.75-.82-8.42-2.46-11-1.64-2.58-3.78-3.87-6.4-3.87-3.91,0-7.09,3.02-9.55,9.06.52,1.75.79,3.68.79,5.81v19.95c.33,1.25,1.24,2.29,2.73,3.12,1.49.84,2.98,1.26,4.46,1.26v.49h-21.86v-.49c1.48,0,2.96-.42,4.46-1.26,1.49-.83,2.39-1.87,2.68-3.12v-19.95c0-4.75-.82-8.42-2.46-11s-3.77-3.87-6.4-3.87c-1.97,0-3.62.71-4.95,2.14-1.33,1.43-2.5,3.4-3.52,5.93v25.79c.3,1.49,1.19,2.73,2.68,3.77s2.98,1.55,4.46,1.55v.49h-21.86v-.49c1.48,0,2.96-.52,4.46-1.55s2.39-2.28,2.68-3.77l.05-29.83c-.26-1.09-1.08-1.94-2.46-2.59-1.38-.64-2.68-.95-3.89-.95v-.45l13.44-1.62.3,6.01c1.25-1.87,2.59-3.35,4.04-4.41,1.44-1.07,2.97-1.6,4.58-1.6,3.15,0,6.01.68,8.59,2.02,2.58,1.35,4.57,3.37,5.98,6.06,1.35-2.13,3.02-4.02,5.02-5.64,2-1.62,3.86-2.44,5.56-2.44,3.02,0,5.77.61,8.25,1.83s4.46,3.04,5.96,5.49c1.49,2.44,2.24,5.48,2.24,9.12v19.95c.3,1.25,1.19,2.29,2.68,3.12,1.49.84,2.98,1.26,4.46,1.26v.49Z"/>
    <path class="cls-1" d="M321,571.19h-21.86v-.44c1.48,0,2.96-.5,4.46-1.48,1.49-.99,2.39-2.22,2.68-3.7v-29.98c-.26-1.09-1.08-1.94-2.46-2.59-1.38-.64-2.68-.95-3.89-.95v-.5l13.89-1.58v35.11c.33,1.7,1.24,3.08,2.73,4.11s2.98,1.55,4.46,1.55v.44ZM310.07,514.27c-1.25,0-2.31-.44-3.18-1.33s-1.3-1.95-1.3-3.2.44-2.31,1.3-3.2,1.93-1.33,3.18-1.33,2.31.44,3.2,1.33,1.33,1.95,1.33,3.2-.44,2.31-1.33,3.2-1.95,1.33-3.2,1.33Z"/>
    <path class="cls-1" d="M341.07,571.19h-.15c-3.28,0-5.83-1.16-7.66-3.47-1.82-2.31-2.75-5.34-2.78-9.09v-27.22h-7.24v-1.43c1.84,0,3.57-.68,5.19-2.07,1.62-1.37,3.05-3.06,4.28-5.07,1.23-2,2.19-4.04,2.88-6.11s1.03-3.77,1.03-5.12h1.43v18.36h14.23v1.43h-14.23v27.22c0,3.42.64,5.95,1.92,7.59,1.15,1.44,2.66,2.17,4.53,2.17.23,0,.95-.06,2.17-.18,1.21-.11,3.25-1.24,6.11-3.37v1.43c-4.47,3.28-8.37,4.92-11.72,4.92Z"/>
    <path class="cls-1" d="M456.23,571.29h-33.43v-.5c1.51,0,3.29-.27,5.34-.84,2.05-.56,3.6-1.36,4.65-2.41.52-.5.79-1.03.79-1.62,0-.69-.33-1.43-.98-2.21l-24.72-28.66-3.79,4.04v24.42c.2,2.27,1.3,4.05,3.32,5.34s4.16,1.94,6.43,1.94v.44h-29v-.44c2.3,0,4.46-.65,6.5-1.94,2.03-1.29,3.13-3.11,3.3-5.45v-54.74c-.16-2.34-1.27-4.14-3.3-5.45-2.04-1.29-4.2-1.94-6.5-1.94v-.44h29v.44c-2.27,0-4.41.65-6.43,1.94-2.02,1.3-3.13,3.08-3.32,5.34v28.46l28.66-30.73c.39-.49.59-.93.59-1.33,0-.56-.47-1.13-1.4-1.72-.93-.59-2.31-1.07-4.11-1.42-1.81-.36-3.09-.54-3.84-.54v-.5h20.88v.5c-3.28,0-6.62,1.61-10,4.82l-20.43,21.96,31.12,35.7c.49.45.95.92,1.38,1.37,1.54,1.75,2.99,3.12,4.33,4.14,1.35,1.01,3,1.52,4.97,1.52v.5Z"/>
    <path class="cls-1" d="M481.09,571.24h-21.86v-.49c1.48,0,2.95-.49,4.43-1.45s2.36-2.21,2.66-3.72v-59.18c-.26-1.08-1.08-1.94-2.46-2.59-1.38-.64-2.68-.95-3.89-.95v-.5l13.93-1.62v64.84c.33,1.51,1.23,2.76,2.71,3.72s2.97,1.45,4.48,1.45v.49Z"/>
    <path class="cls-1" d="M511.36,571.24v-8.27c-2.92,3.68-5.99,6.11-9.21,7.29-1.58.6-3.09.9-4.53.9-1.54,0-3.33-.48-5.37-1.43s-3.74-3.2-5.12-6.75c-.43-1.18-.64-2.46-.64-3.84,0-.85.15-2.13.44-3.84.3-1.71,1.54-3.6,3.74-5.67,2.53-2.39,6.5-3.9,11.91-4.53,1.21-.09,2.34-.3,3.37-.61,1.03-.31,2.09-.94,3.18-1.9.89-.85,1.33-1.91,1.33-3.15,0-.89-.25-1.72-.74-2.51-1.25-1.91-2.77-3.32-4.58-4.28-1.25-.66-2.68-.99-4.28-.99-.72,0-1.48.07-2.27.19-1.08.17-2.56.62-4.43,1.38-1.05.71-1.58,1.51-1.58,2.36s.2,1.77.59,2.76c.39,1.11.59,2.14.59,3.1,0,.86-.38,1.69-1.13,2.52-.59.59-1.3.89-2.12.89-.39,0-1.04-.16-1.94-.48-.9-.31-1.52-1.32-1.85-3.02l-.05-1.04c0-3.02,1.74-5.53,5.22-7.52l.59-.35c3.09-1.63,6.79-2.46,11.13-2.46,2.07,0,4.29.37,6.67,1.11,2.38.74,4.41,2.11,6.11,4.11,1.69,2.01,2.54,4.18,2.54,6.5v23.34c.1,1.3.85,2.31,2.26,3.02,1.41.71,2.77,1.07,4.09,1.07v.49l-13.93,1.62ZM501.96,567.7c2.5,0,5.09-1.5,7.78-4.48,1.08-1.37,1.62-3.18,1.62-5.41v-15.81c-1.15,1.51-2.24,2.54-3.27,3.1-1.03.57-2.12.99-3.25,1.28s-2.45.82-3.96,1.58c-3.15,1.71-5.24,3.81-6.25,6.3-.49,1.21-.74,2.45-.74,3.7s.26,2.58.79,3.89c1.67,3.9,4.1,5.86,7.29,5.86Z"/>
    <path class="cls-1" d="M580.68,571.24h-21.86v-.49c1.48,0,2.96-.42,4.46-1.26,1.49-.83,2.37-1.87,2.63-3.12v-19.95c0-4.75-.81-8.42-2.44-11-1.62-2.58-3.75-3.87-6.38-3.87s-5.06,1.06-7.09,3.15c-2.04,2.1-3.4,4.81-4.09,8.12v22.59c.33,1.49,1.24,2.73,2.73,3.77s2.98,1.55,4.46,1.55v.49h-21.86v-.49c1.48,0,2.96-.52,4.46-1.55,1.49-1.03,2.37-2.28,2.63-3.77l.05-29.83c-.23-1.09-1.03-1.94-2.41-2.59-1.38-.64-2.68-.95-3.89-.95v-.45l13.44-1.62.39,7.93c1.18-2.43,2.75-4.36,4.7-5.79,1.95-1.43,4.11-2.14,6.47-2.14,3.02,0,5.77.61,8.25,1.83s4.46,3.04,5.93,5.49c1.48,2.44,2.22,5.48,2.22,9.12v19.95c.33,1.25,1.24,2.29,2.73,3.12,1.49.84,2.98,1.26,4.46,1.26v.49Z"/>
    <path class="cls-1" d="M602.99,596.79c-3.22,0-6.29-.82-9.21-2.46-2.43-1.51-4.09-3.5-4.97-5.96-.56-1.51-.84-3.01-.84-4.48,0-.92.2-2.18.59-3.79.39-1.61,1.51-3,3.35-4.18l1.13,1.03c-2.17,1.87-3.25,4.14-3.25,6.84,0,2.26.65,4.38,1.94,6.38,1.3,1.97,3.09,3.27,5.39,3.86,1.12.2,2.2.3,3.25.3,2.69,0,5.45-.75,8.27-2.26,2.82-1.51,5.17-3.7,7.04-6.55,1.31-2.13,1.97-4.24,1.97-6.31,0-.66-.16-1.82-.49-3.5-.33-1.67-1.74-3.13-4.23-4.38-1.05-.52-2.27-.79-3.64-.79-1.77,0-3.82.47-6.15,1.38-2.86,1.15-5.47,1.72-7.83,1.72-1.25,0-2.98-.33-5.19-.99s-3.44-2.84-3.67-6.55c0-2.27.89-4.19,2.66-5.79,1.77-1.59,4.04-2.76,6.79-3.52-4.23-2.56-6.61-6.38-7.14-11.47v-.59c0-4.04,1.36-7.5,4.09-10.38,2.72-2.89,6.15-4.33,10.29-4.33.92-2.43,2.4-4.16,4.46-5.2,2.05-1.03,4.11-1.61,6.18-1.75.85-.07,1.62-.1,2.31-.1,2.86,0,5.25,1.07,7.19,3.2,1.38,1.58,2.13,3.23,2.27,4.98-.07,1.74-.72,2.93-1.97,3.59-.59.33-1.16.5-1.72.5-.62,0-1.21-.2-1.77-.59-.92-.76-1.38-1.63-1.38-2.61v-.3c0-.86.12-1.72.37-2.59.25-.87.37-1.7.37-2.49,0-.73-.28-1.33-.84-1.83-.62-.4-1.92-.6-3.89-.64-1.97,0-3.96.42-5.98,1.27-2.02.86-3.41,2.41-4.16,4.63,3.74.43,6.84,1.99,9.28,4.68,2.44,2.7,3.67,5.9,3.67,9.61,0,4.13-1.48,7.59-4.43,10.38-2.82,2.66-6.25,3.99-10.29,3.99-1.61,0-3.22-.32-4.82-.94-2.5.47-4.71,1.55-6.65,3.3-1.61,1.37-2.41,2.88-2.41,4.53,0,.4.05.78.15,1.18.52,1.54,1.62,2.31,3.3,2.31,1.54,0,3.27-.34,5.17-1.03s3.69-1.41,5.37-2.17c3.22-1.48,6.14-2.21,8.76-2.21,1.74,0,3.82.51,6.23,1.54,2.41,1.04,4.34,3.18,5.79,6.43.75,1.74,1.13,3.57,1.13,5.51,0,1.63-.28,3.36-.84,5.16-1.45,3.94-3.86,7.17-7.24,9.68-3.38,2.51-7.14,4.03-11.27,4.55-.82.1-1.64.15-2.46.15ZM603.13,557.45c1.25,0,2.4-.65,3.45-1.94,1.05-1.29,1.89-2.95,2.51-4.95s.94-4.05.94-6.15-.27-4.11-.81-6.11c-.54-2.01-1.33-3.67-2.36-4.98-1.03-1.3-2.27-1.96-3.72-1.96-1.31,0-2.49.66-3.52,1.99-1.03,1.34-1.85,3-2.46,5-.61,2-.91,4.02-.91,6.06s.3,4.01.89,6c.59,2,1.4,3.68,2.44,5.02,1.03,1.35,2.22,2.02,3.57,2.02Z"/>
  </g>
  <path class="cls-2" d="M422.09,250.81c27.31,0,51.71,13.04,67.96,33.52-3.62-36.43-32.84-64.83-68.36-64.83s-65.32,29-68.44,65.98c16.24-21.13,41.03-34.67,68.85-34.67Z"/>
  <g>
    <path class="cls-1" d="M340.35,283.13l-167.06.03v4.84s167.06-.03,167.06-.03c-.02-.92-.13-1.82-.12-2.75,0-.71.1-1.39.12-2.09Z"/>
    <path class="cls-1" d="M193.08,188.53l-1.85,4.46,154.38,63.91c.58-1.51,1.16-3.01,1.83-4.47l-154.36-63.9Z"/>
    <path class="cls-1" d="M365.78,226.83l-118.21-118.16-3.41,3.42,118.21,118.16c1.11-1.17,2.24-2.32,3.41-3.42Z"/>
    <path class="cls-1" d="M328.49,55.74l-4.46,1.85,63.99,154.4c1.47-.66,2.96-1.26,4.46-1.84l-63.99-154.41Z"/>
    <path class="cls-1" d="M423.53,204.98l-.04-167.16h-4.83s.04,167.18.04,167.18c.95-.03,1.88-.13,2.85-.13.67,0,1.32.09,1.98.11Z"/>
    <path class="cls-1" d="M518.13,57.61l-4.46-1.86-63.94,154.44c1.51.57,3.02,1.15,4.48,1.81l63.92-154.4Z"/>
    <path class="cls-1" d="M479.84,230.3l118.15-118.19-3.42-3.41-118.16,118.21c1.17,1.1,2.32,2.23,3.42,3.4Z"/>
    <path class="cls-1" d="M650.92,193.01l-1.85-4.46-154.35,63.98c.66,1.46,1.28,2.95,1.85,4.46l154.35-63.98Z"/>
    <path class="cls-1" d="M501.8,288.05l167.06-.03v-4.84s-167.08.03-167.08.03c.03.99.14,1.96.13,2.97,0,.63-.09,1.24-.11,1.87Z"/>
    <path class="cls-1" d="M251.02,248.85l-.95,4.74,91.42,18.38c.28-1.6.57-3.18.94-4.74l-91.41-18.38Z"/>
    <path class="cls-1" d="M278.03,186.52l-2.7,4.01,77.48,52c.86-1.36,1.75-2.7,2.69-4.01l-77.47-52Z"/>
    <path class="cls-1" d="M326.84,139.29l-4.02,2.67,51.71,77.74c1.31-.93,2.65-1.81,4.02-2.66l-51.71-77.75Z"/>
    <path class="cls-1" d="M390.02,114.33l-4.74.92,18.03,91.65c1.56-.35,3.15-.64,4.74-.9l-18.04-91.67Z"/>
    <path class="cls-1" d="M457.93,115.42l-4.73-.95-18.42,91.62.58.12c1.39.25,2.78.52,4.15.84l18.42-91.62Z"/>
    <path class="cls-1" d="M468.17,220.03l52.09-77.6-4.01-2.69-52.08,77.6,1.01.68c.83.54,1.64,1.07,2.45,1.64l.55.37Z"/>
    <path class="cls-1" d="M489.68,243.01l77.82-51.77-2.68-4.02-77.82,51.77.47.71c.57.83,1.13,1.66,1.67,2.5l.53.81Z"/>
    <path class="cls-1" d="M500.77,272.45l91.7-18.04-.93-4.73-91.7,18.04.05.27c.29,1.28.54,2.57.77,3.88l.12.58Z"/>
  </g>
  <circle class="cls-1" cx="421.65" cy="277.18" r="12.95"/>
</svg>